<svg xmlns="http://www.w3.org/2000/svg" viewBox="0 0 702.99 328.82">
  <title>Stadion_CoreLogo_Colour</title>
  <g>
    <g>
      <path d="M109.39,209.09l1.49-16.24c9.53,6.7,21.89,10.13,34.4,10.13,13.25,0,19.21-5.21,19.21-14.3,0-8.93-6.85-12.06-20-16.23l-8.94-2.68c-14.59-4.47-25.46-13-25.46-30.38s12.21-29.78,37.82-29.78c12.51,0,23.23,2.68,32.32,7.59l-1.64,16.09a63.69,63.69,0,0,0-30.83-7.45c-12.95,0-18,5.06-18,12.81,0,6.85,4,11.91,16.23,15.33l8.49,2.39c21.15,5.95,29.64,15.93,29.64,31.72,0,17.27-12.06,31.12-40.06,31.12C131,219.21,118.62,215.79,109.39,209.09Z" style="fill: #221f1f"/>
      <path d="M224.32,203.43a32.06,32.06,0,0,0,13.84-3l-1.34,15a40.58,40.58,0,0,1-15.48,3.13c-16.68,0-27.11-8.34-27.11-25.32V122.86l18.62-2.53v20.25h25.46L237,154.43H212.85v36.64C212.85,200.45,218.21,203.43,224.32,203.43Z" style="fill: #221f1f"/>
      <path d="M294.35,216.83,293,207.89c-5.36,7-13.25,11-23.38,11-14.59,0-25-8.78-25-21.59s6.41-20.1,25.92-24.87l11.91-2.83c7-1.79,9.23-3.57,9.23-8.19,0-5.06-2.83-7.89-13.7-7.89a59.52,59.52,0,0,0-29,7.3l1.49-15.64a60.94,60.94,0,0,1,28.74-6.7c22.19,0,31.43,8.34,31.43,24.87v33.06a145.05,145.05,0,0,0,1.78,20.4Zm-1.78-20.7V178.41a45.87,45.87,0,0,1-8.34,3l-7.3,1.78c-10,2.54-14.74,5.22-14.74,12.21,0,6.56,5.21,9.39,11.76,9.39C282,204.77,288.69,201.64,292.57,196.13Z" style="fill: #221f1f"/>
      <path d="M395.92,112V216.83H379.24l-.89-8.19c-5.36,6.7-13.41,10.27-23.09,10.27-20.25,0-34.4-15.63-34.4-40.2s14.3-40.21,36-40.21c8.79,0,15.49,3,20.55,8.49V112Zm-18.47,84.88V160.54c-4.46-4.77-10.27-7-17.42-7-13.7,0-20.7,10.27-20.7,25.17s7,25.16,20.4,25.16C367,203.87,372.84,201.64,377.45,196.87Z" style="fill: #221f1f"/>
      <path d="M410.25,142.53l18.17-1.91v76.21H410.25Z" style="fill: #221f1f"/>
      <path d="M439.29,178.71c0-23.83,13.7-40.21,38.12-40.21,24.27,0,38.12,16.38,38.12,40.21,0,24.27-13.85,40.2-38.12,40.2C453,218.91,439.29,202.53,439.29,178.71Zm57.63,0c0-16.39-6.11-25.47-19.51-25.47s-19.66,9.08-19.66,25.47S464.16,204,477.41,204C490.51,204,496.92,195.09,496.92,178.71Z" style="fill: #221f1f"/>
      <path d="M593.6,165.9v50.93H575.28v-48.1C575.28,159.49,571,154,561,154c-6.55,0-11.77,3-15.79,8.49v54.36H526.59V140.58H543l1.34,9.83c4.62-7.44,12.51-11.91,22.78-11.91C583.47,138.5,593.6,148.33,593.6,165.9Z" style="fill: #221f1f"/>
    </g>
    <polygon points="413.59 132.33 407.08 123.36 411.59 113.24 422.61 112.08 429.12 121.05 424.61 131.17 413.59 132.33" style="fill: #f16722"/>
  </g>
</svg>
